<?xml version="1.0" encoding="UTF-8" standalone="no"?>
<!-- Created with Inkscape (http://www.inkscape.org/) -->

<svg
   xmlns:dc="http://purl.org/dc/elements/1.1/"
   xmlns:cc="http://creativecommons.org/ns#"
   xmlns:rdf="http://www.w3.org/1999/02/22-rdf-syntax-ns#"
   xmlns:svg="http://www.w3.org/2000/svg"
   xmlns="http://www.w3.org/2000/svg"
   xmlns:sodipodi="http://sodipodi.sourceforge.net/DTD/sodipodi-0.dtd"
   xmlns:inkscape="http://www.inkscape.org/namespaces/inkscape"
   version="1.1"
   width="2337.6187"
   height="575.42755"
   id="svg2"
   inkscape:version="0.48.5 r10040"
   sodipodi:docname="logo.svg">
  <sodipodi:namedview
     pagecolor="#ffffff"
     bordercolor="#666666"
     borderopacity="1"
     objecttolerance="10"
     gridtolerance="10"
     guidetolerance="10"
     inkscape:pageopacity="0"
     inkscape:pageshadow="2"
     inkscape:window-width="2560"
     inkscape:window-height="1534"
     id="namedview11"
     showgrid="false"
     inkscape:zoom="0.14844166"
     inkscape:cx="1195.7559"
     inkscape:cy="287.71377"
     inkscape:window-x="0"
     inkscape:window-y="27"
     inkscape:window-maximized="1"
     inkscape:current-layer="svg2" />
  <defs
     id="defs4" />
  <metadata
     id="metadata7">
    <rdf:RDF>
      <cc:Work
         rdf:about="">
        <dc:format>image/svg+xml</dc:format>
        <dc:type
           rdf:resource="http://purl.org/dc/dcmitype/StillImage" />
        <dc:title />
      </cc:Work>
    </rdf:RDF>
  </metadata>
  <text
     sodipodi:linespacing="125%"
     style="font-size:440.44610596px;font-style:normal;font-weight:normal;line-height:125%;letter-spacing:0px;word-spacing:0px;fill:#000000;fill-opacity:1;stroke:none;font-family:Sans"
     xml:space="preserve"
     id="text3004"
     y="408.01816"
     x="705.53864"><tspan
       style="font-size:440.44610596px;font-style:normal;font-variant:normal;font-weight:600;font-stretch:normal;text-align:start;line-height:125%;writing-mode:lr-tb;text-anchor:start;font-family:ITC Avant Garde Gothic Std;-inkscape-font-specification:ITC Avant Garde Gothic Std Semi-Bold"
       id="tspan3006"
       y="408.01816"
       x="705.53864">the LIST</tspan></text>
  <g
     id="g3246"
     transform="matrix(8.991196,0,0,8.991196,-49.4516,31.46919)">
    <circle
       sodipodi:ry="28.836"
       sodipodi:rx="28.836"
       sodipodi:cy="28.500999"
       sodipodi:cx="37.785"
       d="M 66.621,28.500999 C 66.621,44.426683 53.710683,57.337 37.785,57.337 21.859317,57.337 8.9489994,44.426683 8.9489994,28.500999 c 0,-15.925683 12.9103176,-28.83599999 28.8360006,-28.83599999 15.925683,0 28.836,12.91031699 28.836,28.83599999 z"
       style="fill:#ffffff"
       id="circle3248"
       r="28.836"
       cy="28.500999"
       cx="37.785" />
    <path
       inkscape:connector-curvature="0"
       id="path3250"
       d="m 37.441,-3.5 c 8.951,0 16.572,3.125 22.857,9.372 3.008,3.009 5.295,6.448 6.857,10.314 1.561,3.867 2.344,7.971 2.344,12.314 0,4.381 -0.773,8.486 -2.314,12.313 -1.543,3.828 -3.82,7.21 -6.828,10.143 -3.123,3.085 -6.666,5.448 -10.629,7.086 -3.961,1.638 -8.057,2.457 -12.285,2.457 -4.228,0 -8.276,-0.808 -12.143,-2.429 C 21.434,56.452 17.967,54.109 14.9,51.043 11.833,47.977 9.5,44.519 7.9,40.671 6.3,36.823 5.5,32.767 5.5,28.5 5.5,24.271 6.309,20.205 7.928,16.3 9.547,12.395 11.9,8.9 14.985,5.814 21.08,-0.394 28.565,-3.5 37.441,-3.5 z m 0.116,5.772 c -7.314,0 -13.467,2.553 -18.458,7.657 -2.515,2.553 -4.448,5.419 -5.8,8.6 -1.354,3.181 -2.029,6.505 -2.029,9.972 0,3.429 0.675,6.734 2.029,9.913 1.353,3.183 3.285,6.021 5.8,8.516 2.514,2.496 5.351,4.399 8.515,5.715 3.161,1.314 6.476,1.971 9.943,1.971 3.428,0 6.75,-0.665 9.973,-1.999 3.219,-1.335 6.121,-3.257 8.713,-5.771 4.99,-4.876 7.484,-10.99 7.484,-18.344 0,-3.543 -0.648,-6.895 -1.943,-10.057 C 60.491,15.283 58.604,12.465 56.13,9.987 50.984,4.844 44.795,2.272 37.557,2.272 z m -0.401,20.915 -4.287,2.229 c -0.458,-0.951 -1.019,-1.619 -1.685,-2 -0.667,-0.38 -1.286,-0.571 -1.858,-0.571 -2.856,0 -4.286,1.885 -4.286,5.657 0,1.714 0.362,3.084 1.085,4.113 0.724,1.029 1.791,1.544 3.201,1.544 1.867,0 3.181,-0.915 3.944,-2.743 l 3.942,2 c -0.838,1.563 -2,2.791 -3.486,3.686 -1.484,0.896 -3.123,1.343 -4.914,1.343 -2.857,0 -5.163,-0.875 -6.915,-2.629 -1.752,-1.752 -2.628,-4.19 -2.628,-7.313 0,-3.048 0.886,-5.466 2.657,-7.257 1.771,-1.79 4.009,-2.686 6.715,-2.686 3.963,-0.002 6.8,1.541 8.515,4.627 z m 18.457,0 -4.229,2.229 c -0.457,-0.951 -1.02,-1.619 -1.686,-2 -0.668,-0.38 -1.307,-0.571 -1.914,-0.571 -2.857,0 -4.287,1.885 -4.287,5.657 0,1.714 0.363,3.084 1.086,4.113 0.723,1.029 1.789,1.544 3.201,1.544 1.865,0 3.18,-0.915 3.941,-2.743 l 4,2 c -0.875,1.563 -2.057,2.791 -3.541,3.686 -1.486,0.896 -3.105,1.343 -4.857,1.343 -2.896,0 -5.209,-0.875 -6.941,-2.629 -1.736,-1.752 -2.602,-4.19 -2.602,-7.313 0,-3.048 0.885,-5.466 2.658,-7.257 1.77,-1.79 4.008,-2.686 6.713,-2.686 3.962,-0.002 6.783,1.541 8.458,4.627 z" />
  </g>
  <g
     style="font-size:28.03619003px;font-style:normal;font-weight:normal;line-height:125%;letter-spacing:0px;word-spacing:0px;fill:#999999;fill-opacity:1;stroke:none;font-family:Sans"
     id="text2993">
    <path
       d="m 891.57994,543.91956 0,-72.3958 8.08231,0 0,6.80097 c 1.90556,-2.6612 4.05756,-4.64892 6.45599,-5.96317 2.39838,-1.347 5.30604,-2.02052 8.72297,-2.02057 4.46824,5e-5 8.41082,1.14997 11.82777,3.44976 3.41687,2.29989 5.99597,5.55253 7.73733,9.75791 1.74126,4.17261 2.61192,8.75586 2.61197,13.74978 -5e-5,5.35537 -0.96927,10.18504 -2.90766,14.48901 -1.90563,4.27115 -4.6983,7.55664 -8.378,9.85648 -3.64694,2.26699 -7.49096,3.40048 -11.53208,3.40048 -2.95696,0 -5.61821,-0.62424 -7.98374,-1.87273 -2.33272,-1.24848 -4.25473,-2.82552 -5.76604,-4.73111 l 0,25.47899 -8.87082,0 m 8.03302,-45.93117 c -1e-5,6.73528 1.36347,11.71279 4.09044,14.93256 2.72694,3.21979 6.02885,4.82968 9.90576,4.82967 3.94255,10e-6 7.31018,-1.65917 10.10288,-4.97752 2.82548,-3.35119 4.23824,-8.52583 4.23828,-15.52394 -4e-5,-6.66952 -1.37994,-11.66346 -4.13972,-14.98184 -2.72699,-3.3183 -5.99605,-4.97747 -9.80719,-4.97752 -3.77834,5e-5 -7.12953,1.77421 -10.0536,5.32249 -2.89125,3.51552 -4.33686,8.64088 -4.33685,15.3761"
       style="font-size:100.93028259px;fill:#999999"
       id="path2989" />
    <path
       d="m 944.45992,497.6927 c -10e-6,-9.69216 2.69409,-16.87096 8.0823,-21.5364 4.50111,-3.87682 9.98787,-5.81526 16.46031,-5.81531 7.19519,5e-5 13.07622,2.3656 17.64309,7.09666 4.56678,4.69829 6.8502,11.20356 6.85025,19.51581 -5e-5,6.73528 -1.01855,12.04134 -3.05551,15.91821 -2.00419,3.84403 -4.94471,6.83382 -8.82154,8.96939 -3.84406,2.13557 -8.04949,3.20335 -12.61629,3.20335 -7.32666,0 -13.25697,-2.34912 -17.79093,-7.04738 -4.50113,-4.69824 -6.75169,-11.46634 -6.75168,-20.30433 m 9.11723,0 c -10e-6,6.70242 1.46203,11.72921 4.38613,15.0804 2.92407,3.31835 6.60382,4.97753 11.03925,4.97752 4.40253,10e-6 8.06585,-1.67559 10.98997,-5.0268 2.92405,-3.35119 4.38609,-8.46012 4.38613,-15.32682 -4e-5,-6.47238 -1.47851,-11.36776 -4.43541,-14.68614 -2.92412,-3.35116 -6.57102,-5.02676 -10.94069,-5.0268 -4.43543,4e-5 -8.11518,1.65922 -11.03925,4.97752 -2.9241,3.31838 -4.38614,8.32875 -4.38613,15.03112"
       style="font-size:100.93028259px;fill:#999999"
       id="path2991" />
    <path
       d="m 1013.6031,523.86163 -16.01679,-52.33787 9.16649,0 8.3287,30.21009 3.1048,11.23638 c 0.1314,-0.55852 1.0349,-4.15613 2.7106,-10.79284 l 8.3287,-30.65363 9.1172,0 7.8359,30.35794 2.612,10.00432 3.0062,-10.10289 8.9694,-30.25937 8.6244,0 -16.3617,52.33787 -9.2158,0 -8.3288,-31.34358 -2.0205,-8.92011 -10.5957,40.26369 -9.2651,0"
       style="font-size:100.93028259px;fill:#999999"
       id="path2993" />
    <path
       d="m 1112.7099,507.00706 9.1665,1.1335 c -1.4456,5.35536 -4.1233,9.5115 -8.033,12.46844 -3.9098,2.95694 -8.9037,4.43541 -14.9818,4.43541 -7.6552,0 -13.7334,-2.34912 -18.2345,-7.04738 -4.4683,-4.73109 -6.7024,-11.35135 -6.7024,-19.86079 0,-8.80508 2.267,-15.6389 6.801,-20.50146 4.5339,-4.86248 10.4149,-7.29374 17.643,-7.29379 6.9981,5e-5 12.7149,2.38203 17.1503,7.14594 4.4354,4.764 6.6531,11.4664 6.6531,20.1072 0,0.52571 -0.016,1.31422 -0.049,2.36556 l -39.0316,0 c 0.3285,5.74962 1.9549,10.15218 4.879,13.20767 2.924,3.05551 6.5709,4.58327 10.9407,4.58326 3.2526,10e-6 6.0288,-0.85422 8.3287,-2.56268 2.2998,-1.70845 4.1232,-4.4354 5.4703,-8.18088 m -29.1259,-14.34116 29.2245,0 c -0.3943,-4.40253 -1.5114,-7.70444 -3.3512,-9.90576 -2.8256,-3.41686 -6.4889,-5.12532 -10.99,-5.12536 -4.074,4e-5 -7.5074,1.36352 -10.3,4.09043 -2.7598,2.727 -4.2876,6.37389 -4.5833,10.94069"
       style="font-size:100.93028259px;fill:#999999"
       id="path2995" />
    <path
       d="m 1132.965,523.86163 0,-52.33787 7.9837,0 0,7.93446 c 2.037,-3.71255 3.9097,-6.16024 5.6182,-7.34307 1.7413,-1.18272 3.6469,-1.77411 5.7167,-1.77416 2.9898,5e-5 6.0289,0.95284 9.1173,2.85837 l -3.0555,8.23016 c -2.1685,-1.2813 -4.3369,-1.92197 -6.5053,-1.92201 -1.9385,4e-5 -3.6798,0.59143 -5.2239,1.77416 -1.5442,1.14996 -2.6449,2.75985 -3.3019,4.82967 -0.9857,3.15411 -1.4785,6.60387 -1.4785,10.3493 l 0,27.40099 -8.8708,0"
       style="font-size:100.93028259px;fill:#999999"
       id="path2997" />
    <path
       d="m 1202.6009,507.00706 9.1666,1.1335 c -1.4457,5.35536 -4.1234,9.5115 -8.0331,12.46844 -3.9097,2.95694 -8.9037,4.43541 -14.9818,4.43541 -7.6552,0 -13.7334,-2.34912 -18.2345,-7.04738 -4.4683,-4.73109 -6.7024,-11.35135 -6.7024,-19.86079 0,-8.80508 2.267,-15.6389 6.801,-20.50146 4.5339,-4.86248 10.415,-7.29374 17.6431,-7.29379 6.998,5e-5 12.7148,2.38203 17.1502,7.14594 4.4354,4.764 6.6531,11.4664 6.6531,20.1072 0,0.52571 -0.016,1.31422 -0.049,2.36556 l -39.0317,0 c 0.3286,5.74962 1.9549,10.15218 4.879,13.20767 2.9241,3.05551 6.5709,4.58327 10.9407,4.58326 3.2526,10e-6 6.0288,-0.85422 8.3287,-2.56268 2.2998,-1.70845 4.1232,-4.4354 5.4703,-8.18088 m -29.1258,-14.34116 29.2244,0 c -0.3943,-4.40253 -1.5114,-7.70444 -3.3512,-9.90576 -2.8256,-3.41686 -6.4889,-5.12532 -10.99,-5.12536 -4.074,4e-5 -7.5073,1.36352 -10.3,4.09043 -2.7598,2.727 -4.2876,6.37389 -4.5832,10.94069"
       style="font-size:100.93028259px;fill:#999999"
       id="path2999" />
    <path
       d="m 1256.9101,523.86163 0,-6.60383 c -3.3184,5.19107 -8.1973,7.78661 -14.6368,7.78661 -4.1726,0 -8.0167,-1.14992 -11.5321,-3.44977 -3.4826,-2.29983 -6.1932,-5.50319 -8.1316,-9.61006 -1.9056,-4.1397 -2.8584,-8.88723 -2.8584,-14.2426 0,-5.2239 0.8707,-9.955 2.612,-14.19332 1.7413,-4.27109 4.3532,-7.54015 7.8359,-9.80719 3.4826,-2.26694 7.3759,-3.40043 11.6799,-3.40048 3.154,5e-5 5.9631,0.67357 8.4273,2.02057 2.4641,1.31425 4.4682,3.03913 6.0124,5.17465 l 0,-25.92252 8.8216,0 0,72.24794 -8.2302,0 m -28.0416,-26.11965 c -10e-5,6.70242 1.4127,11.71279 4.2382,15.03112 2.8255,3.31835 6.1603,4.97753 10.0044,4.97752 3.8768,10e-6 7.1623,-1.57703 9.8564,-4.73111 2.7269,-3.18691 4.0904,-8.033 4.0905,-14.53829 -10e-5,-7.16234 -1.38,-12.41912 -4.1398,-15.77036 -2.7598,-3.35116 -6.1603,-5.02676 -10.2014,-5.0268 -3.9426,4e-5 -7.2445,1.60993 -9.9058,4.82967 -2.6284,3.21982 -3.9426,8.2959 -3.9425,15.22825"
       style="font-size:100.93028259px;fill:#999999"
       id="path3001" />
    <path
       d="m 1315.3097,523.86163 -8.2302,0 0,-72.24794 8.8709,0 0,25.77467 c 3.7454,-4.6982 8.5258,-7.04732 14.3411,-7.04737 3.2198,5e-5 6.2589,0.65715 9.1173,1.97129 2.8912,1.28139 5.2567,3.10484 7.0966,5.47034 1.8727,2.33274 3.3348,5.15826 4.3862,8.47657 1.0513,3.31838 1.577,6.86671 1.577,10.64499 0,8.96941 -2.2178,15.90179 -6.6531,20.79716 -4.4355,4.89538 -9.758,7.34307 -15.9675,7.34307 -6.1767,0 -11.0228,-2.57911 -14.5383,-7.73733 l 0,6.55455 m -0.099,-26.56319 c 0,6.27531 0.8542,10.80928 2.5627,13.60193 2.7927,4.56684 6.571,6.85026 11.335,6.85025 3.8768,10e-6 7.228,-1.67559 10.0536,-5.0268 2.8254,-3.38404 4.2382,-8.41084 4.2382,-15.0804 0,-6.83379 -1.3635,-11.87702 -4.0904,-15.12969 -2.6941,-3.25259 -5.9632,-4.87891 -9.8072,-4.87895 -3.8769,4e-5 -7.2281,1.69207 -10.0536,5.07608 -2.8255,3.35124 -4.2383,8.21376 -4.2383,14.58758"
       style="font-size:100.93028259px;fill:#999999"
       id="path3003" />
    <path
       d="m 1362.9165,544.01812 -0.9857,-8.32872 c 1.9385,0.52567 3.6305,0.78851 5.0761,0.78852 1.9713,-1e-5 3.5483,-0.32856 4.7311,-0.98565 1.1828,-0.65711 2.152,-1.57704 2.9077,-2.75981 0.5585,-0.88709 1.462,-3.08837 2.7105,-6.60384 0.1643,-0.49282 0.4271,-1.21563 0.7885,-2.16842 l -19.8608,-52.43644 9.5608,0 10.8914,30.30866 c 1.4128,3.84404 2.6777,7.88519 3.7948,12.12346 1.0184,-4.074 2.2341,-8.04944 3.6469,-11.92633 l 11.1871,-30.50579 8.8708,0 -19.9101,53.22496 c -2.1356,5.7496 -3.7948,9.70861 -4.9775,11.87705 -1.5771,2.92407 -3.3841,5.05963 -5.4211,6.4067 -2.037,1.37989 -4.4683,2.06984 -7.2938,2.06986 -1.7084,-2e-5 -3.614,-0.36142 -5.7167,-1.08421"
       style="font-size:100.93028259px;fill:#999999"
       id="path3005" />
    <path
       d="m 1494.4511,498.5305 9.5608,2.41483 c -2.0043,7.85234 -5.6183,13.84836 -10.8422,17.98807 -5.1911,4.10686 -11.5485,6.16029 -19.0722,6.16029 -7.7867,0 -14.1277,-1.57703 -19.023,-4.7311 -4.8626,-3.18692 -8.5752,-7.78661 -11.1378,-13.79907 -2.5299,-6.01242 -3.7948,-12.46841 -3.7948,-19.36797 0,-7.52373 1.4292,-14.07827 4.2876,-19.66366 2.8912,-5.61813 6.9816,-9.87283 12.2713,-12.76413 5.3225,-2.92402 11.1706,-4.38606 17.5445,-4.38613 7.228,7e-5 13.3062,1.83994 18.2345,5.51962 4.9282,3.67982 8.3615,8.85446 10.3,15.52395 l -9.4129,2.2177 c -1.6757,-5.25673 -4.107,-9.08432 -7.2938,-11.48279 -3.187,-2.39834 -7.1953,-3.59754 -12.0249,-3.59761 -5.5525,7e-5 -10.2015,1.33069 -13.9469,3.99187 -3.7127,2.66131 -6.3246,6.24249 -7.8359,10.74356 -1.5114,4.46831 -2.267,9.08442 -2.267,13.84834 0,6.1439 0.8871,11.51567 2.6612,16.11533 1.807,4.56685 4.5997,7.98376 8.378,10.25074 3.7783,2.26699 7.8688,3.40049 12.2713,3.40048 5.3554,10e-6 9.8893,-1.54417 13.602,-4.63254 3.7125,-3.08835 6.2259,-7.6716 7.5402,-13.74978"
       style="font-size:100.93028259px;fill:#999999"
       id="path3007" />
    <path
       d="m 1514.6076,523.86163 0,-52.33787 7.9837,0 0,7.93446 c 2.037,-3.71255 3.9098,-6.16024 5.6182,-7.34307 1.7413,-1.18272 3.6469,-1.77411 5.7168,-1.77416 2.9897,5e-5 6.0288,0.95284 9.1172,2.85837 l -3.0555,8.23016 c -2.1684,-1.2813 -4.3369,-1.92197 -6.5053,-1.92201 -1.9384,4e-5 -3.6797,0.59143 -5.2239,1.77416 -1.5442,1.14996 -2.6448,2.75985 -3.3019,4.82967 -0.9857,3.15411 -1.4785,6.60387 -1.4785,10.3493 l 0,27.40099 -8.8708,0"
       style="font-size:100.93028259px;fill:#999999"
       id="path3009" />
    <path
       d="m 1584.2435,507.00706 9.1666,1.1335 c -1.4457,5.35536 -4.1234,9.5115 -8.0331,12.46844 -3.9097,2.95694 -8.9037,4.43541 -14.9818,4.43541 -7.6552,0 -13.7334,-2.34912 -18.2345,-7.04738 -4.4682,-4.73109 -6.7024,-11.35135 -6.7024,-19.86079 0,-8.80508 2.267,-15.6389 6.801,-20.50146 4.534,-4.86248 10.415,-7.29374 17.6431,-7.29379 6.998,5e-5 12.7148,2.38203 17.1502,7.14594 4.4354,4.764 6.6531,11.4664 6.6532,20.1072 -10e-5,0.52571 -0.016,1.31422 -0.049,2.36556 l -39.0317,0 c 0.3286,5.74962 1.9549,10.15218 4.879,13.20767 2.9241,3.05551 6.571,4.58327 10.9407,4.58326 3.2526,10e-6 6.0288,-0.85422 8.3287,-2.56268 2.2998,-1.70845 4.1233,-4.4354 5.4703,-8.18088 m -29.1258,-14.34116 29.2244,0 c -0.3943,-4.40253 -1.5114,-7.70444 -3.3512,-9.90576 -2.8256,-3.41686 -6.4889,-5.12532 -10.99,-5.12536 -4.074,4e-5 -7.5073,1.36352 -10.3,4.09043 -2.7598,2.727 -4.2876,6.37389 -4.5832,10.94069"
       style="font-size:100.93028259px;fill:#999999"
       id="path3011" />
    <path
       d="m 1638.7499,517.40564 c -3.2855,2.79267 -6.456,4.76397 -9.5115,5.91389 -3.0227,1.14992 -6.2753,1.72488 -9.7579,1.72488 -5.7496,0 -10.1686,-1.39633 -13.257,-4.189 -3.0883,-2.82552 -4.6325,-6.42313 -4.6325,-10.79284 0,-2.56267 0.5749,-4.89536 1.7249,-6.99809 1.1827,-2.13555 2.7105,-3.844 4.5832,-5.12537 1.9056,-1.28131 4.0412,-2.25053 6.4067,-2.90766 1.7413,-0.45994 4.3697,-0.90348 7.8852,-1.33062 7.1624,-0.8542 12.4356,-1.8727 15.8197,-3.05551 0.033,-1.2156 0.049,-1.98769 0.049,-2.31627 0,-3.614 -0.8378,-6.16026 -2.5134,-7.63877 -2.267,-2.0041 -5.6346,-3.00618 -10.1028,-3.00622 -4.1726,4e-5 -7.261,0.73928 -9.2651,2.2177 -1.9713,1.44566 -3.4334,4.02477 -4.3862,7.73734 l -8.6737,-1.18278 c 0.7886,-3.71257 2.0863,-6.70236 3.8933,-8.96939 1.8071,-2.2998 4.419,-4.05753 7.8359,-5.27321 3.4169,-1.24844 7.3759,-1.87268 11.8771,-1.87273 4.4682,5e-5 8.0987,0.52573 10.8914,1.57703 2.7926,1.05141 4.846,2.38203 6.1603,3.99187 1.3141,1.57708 2.2341,3.58123 2.7598,6.01245 0.2956,1.51137 0.4435,4.23832 0.4435,8.18087 l 0,11.82777 c 0,8.2466 0.1807,13.47052 0.5422,15.67179 0.3942,2.16843 1.1498,4.25472 2.2669,6.25886 l -9.265,0 c -0.92,-1.83987 -1.5114,-3.99186 -1.7742,-6.45599 m -0.7392,-19.81151 c -3.2199,1.31422 -8.0495,2.43129 -14.4891,3.3512 -3.6469,0.5257 -6.226,1.11709 -7.7373,1.77417 -1.5113,0.65712 -2.6777,1.62634 -3.499,2.90766 -0.8214,1.2485 -1.2321,2.64483 -1.2321,4.189 0,2.36556 0.8871,4.33686 2.6612,5.91388 1.8071,1.57705 4.4354,2.36556 7.8852,2.36556 3.4169,0 6.456,-0.73923 9.1173,-2.21771 2.6612,-1.51132 4.616,-3.56475 5.8646,-6.1603 0.9527,-2.00413 1.4291,-4.96107 1.4292,-8.87082 l 0,-3.25264"
       style="font-size:100.93028259px;fill:#999999"
       id="path3013" />
    <path
       d="m 1680.1471,515.92717 1.2813,7.8359 c -2.497,0.52568 -4.7311,0.78852 -6.7024,0.78852 -3.2198,0 -5.7168,-0.50925 -7.4909,-1.52776 -1.7742,-1.0185 -3.0227,-2.34912 -3.7455,-3.99187 -0.7228,-1.67559 -1.0842,-5.17464 -1.0842,-10.49714 l 0,-30.11153 -6.5053,0 0,-6.89953 6.5053,0 0,-12.96126 8.8216,-5.3225 0,18.28376 8.9201,0 0,6.89953 -8.9201,0 0,30.60435 c -1e-4,2.52984 0.1478,4.15616 0.4435,4.87896 0.3285,0.72281 0.8378,1.29777 1.5278,1.72488 0.7227,0.42712 1.7412,0.64068 3.0555,0.64067 0.9856,10e-6 2.2834,-0.11499 3.8933,-0.34498"
       style="font-size:100.93028259px;fill:#999999"
       id="path3015" />
    <path
       d="m 1688.8207,461.81514 0,-10.20145 8.8709,0 0,10.20145 -8.8709,0 m 0,62.04649 0,-52.33787 8.8709,0 0,52.33787 -8.8709,0"
       style="font-size:100.93028259px;fill:#999999"
       id="path3017" />
    <path
       d="m 1725.7825,523.86163 -19.91,-52.33787 9.3636,0 11.2364,31.34359 c 1.2156,3.38407 2.3327,6.89954 3.3512,10.54642 0.7885,-2.7598 1.8891,-6.07814 3.3019,-9.95504 l 11.6307,-31.93497 9.1172,0 -19.8115,52.33787 -8.2795,0"
       style="font-size:100.93028259px;fill:#999999"
       id="path3019" />
    <path
       d="m 1797.5377,507.00706 9.1665,1.1335 c -1.4457,5.35536 -4.1233,9.5115 -8.033,12.46844 -3.9098,2.95694 -8.9037,4.43541 -14.9819,4.43541 -7.6552,0 -13.7333,-2.34912 -18.2344,-7.04738 -4.4683,-4.73109 -6.7025,-11.35135 -6.7024,-19.86079 -10e-5,-8.80508 2.2669,-15.6389 6.8009,-20.50146 4.534,-4.86248 10.415,-7.29374 17.6431,-7.29379 6.9981,5e-5 12.7148,2.38203 17.1503,7.14594 4.4353,4.764 6.653,11.4664 6.6531,20.1072 -10e-5,0.52571 -0.016,1.31422 -0.049,2.36556 l -39.0316,0 c 0.3285,5.74962 1.9548,10.15218 4.8789,13.20767 2.9241,3.05551 6.571,4.58327 10.9407,4.58326 3.2526,10e-6 6.0289,-0.85422 8.3287,-2.56268 2.2998,-1.70845 4.1233,-4.4354 5.4704,-8.18088 m -29.1259,-14.34116 29.2244,0 c -0.3943,-4.40253 -1.5113,-7.70444 -3.3512,-9.90576 -2.8255,-3.41686 -6.4888,-5.12532 -10.9899,-5.12536 -4.0741,4e-5 -7.5074,1.36352 -10.3,4.09043 -2.7599,2.727 -4.2876,6.37389 -4.5833,10.94069"
       style="font-size:100.93028259px;fill:#999999"
       id="path3021" />
    <path
       d="m 1898.5665,498.5305 9.5608,2.41483 c -2.0042,7.85234 -5.6183,13.84836 -10.8421,17.98807 -5.1912,4.10686 -11.5486,6.16029 -19.0723,6.16029 -7.7867,0 -14.1277,-1.57703 -19.023,-4.7311 -4.8626,-3.18692 -8.5752,-7.78661 -11.1378,-13.79907 -2.5299,-6.01242 -3.7948,-12.46841 -3.7948,-19.36797 0,-7.52373 1.4292,-14.07827 4.2876,-19.66366 2.8912,-5.61813 6.9816,-9.87283 12.2713,-12.76413 5.3225,-2.92402 11.1706,-4.38606 17.5445,-4.38613 7.2281,7e-5 13.3062,1.83994 18.2345,5.51962 4.9282,3.67982 8.3615,8.85446 10.3,15.52395 l -9.4129,2.2177 c -1.6757,-5.25673 -4.1069,-9.08432 -7.2938,-11.48279 -3.187,-2.39834 -7.1953,-3.59754 -12.0249,-3.59761 -5.5525,7e-5 -10.2015,1.33069 -13.9469,3.99187 -3.7126,2.66131 -6.3246,6.24249 -7.8359,10.74356 -1.5113,4.46831 -2.267,9.08442 -2.267,13.84834 0,6.1439 0.8871,11.51567 2.6613,16.11533 1.807,4.56685 4.5996,7.98376 8.378,10.25074 3.7782,2.26699 7.8687,3.40049 12.2713,3.40048 5.3553,10e-6 9.8892,-1.54417 13.6019,-4.63254 3.7125,-3.08835 6.2259,-7.6716 7.5402,-13.74978"
       style="font-size:100.93028259px;fill:#999999"
       id="path3023" />
    <path
       d="m 1915.5196,497.6927 c 0,-9.69216 2.6941,-16.87096 8.0823,-21.5364 4.5011,-3.87682 9.9879,-5.81526 16.4603,-5.81531 7.1952,5e-5 13.0762,2.3656 17.6431,7.09666 4.5668,4.69829 6.8502,11.20356 6.8502,19.51581 0,6.73528 -1.0185,12.04134 -3.0555,15.91821 -2.0042,3.84403 -4.9447,6.83382 -8.8215,8.96939 -3.8441,2.13557 -8.0495,3.20335 -12.6163,3.20335 -7.3267,0 -13.257,-2.34912 -17.7909,-7.04738 -4.5011,-4.69824 -6.7517,-11.46634 -6.7517,-20.30433 m 9.1172,0 c 0,6.70242 1.4621,11.72921 4.3862,15.0804 2.924,3.31835 6.6038,4.97753 11.0392,4.97752 4.4025,10e-6 8.0659,-1.67559 10.99,-5.0268 2.924,-3.35119 4.3861,-8.46012 4.3861,-15.32682 0,-6.47238 -1.4785,-11.36776 -4.4354,-14.68614 -2.9241,-3.35116 -6.571,-5.02676 -10.9407,-5.0268 -4.4354,4e-5 -8.1152,1.65922 -11.0392,4.97752 -2.9241,3.31838 -4.3862,8.32875 -4.3862,15.03112"
       style="font-size:100.93028259px;fill:#999999"
       id="path3025" />
    <path
       d="m 1975.0034,523.86163 0,-52.33787 7.9345,0 0,7.34307 c 1.6427,-2.56263 3.8275,-4.61606 6.5545,-6.16029 2.7269,-1.57698 5.8317,-2.3655 9.3144,-2.36555 3.8768,5e-5 7.0473,0.80499 9.5115,2.41483 2.4969,1.60994 4.2546,3.8605 5.2732,6.75169 4.1397,-6.11097 9.5279,-9.16647 16.1646,-9.16652 5.191,5e-5 9.1829,1.44566 11.9756,4.33684 2.7926,2.85843 4.1889,7.27741 4.189,13.25696 l 0,35.92684 -8.8215,0 0,-32.9699 c -1e-4,-3.54829 -0.2958,-6.09455 -0.8871,-7.63877 -0.5586,-1.57699 -1.5935,-2.8419 -3.1048,-3.79474 -1.5114,-0.95274 -3.2855,-1.42914 -5.3225,-1.42919 -3.6798,5e-5 -6.7353,1.23211 -9.1665,3.69618 -2.4313,2.4313 -3.6469,6.34103 -3.6469,11.7292 l 0,30.40722 -8.8708,0 0,-34.00483 c -10e-5,-3.94255 -0.7229,-6.89949 -2.1685,-8.87082 -1.4456,-1.97125 -3.8112,-2.9569 -7.0966,-2.95695 -2.497,5e-5 -4.8133,0.65715 -6.9488,1.9713 -2.1028,1.31424 -3.6305,3.23625 -4.5833,5.76604 -0.9528,2.52986 -1.4292,6.17675 -1.4292,10.94068 l 0,27.15458 -8.8708,0"
       style="font-size:100.93028259px;fill:#999999"
       id="path3027" />
    <path
       d="m 2059.1777,523.86163 0,-52.33787 7.9345,0 0,7.34307 c 1.6427,-2.56263 3.8276,-4.61606 6.5545,-6.16029 2.727,-1.57698 5.8318,-2.3655 9.3144,-2.36555 3.8768,5e-5 7.0473,0.80499 9.5115,2.41483 2.4969,1.60994 4.2547,3.8605 5.2732,6.75169 4.1397,-6.11097 9.5279,-9.16647 16.1646,-9.16652 5.191,5e-5 9.1829,1.44566 11.9756,4.33684 2.7926,2.85843 4.189,7.27741 4.189,13.25696 l 0,35.92684 -8.8215,0 0,-32.9699 c -10e-5,-3.54829 -0.2958,-6.09455 -0.8871,-7.63877 -0.5586,-1.57699 -1.5935,-2.8419 -3.1048,-3.79474 -1.5114,-0.95274 -3.2855,-1.42914 -5.3225,-1.42919 -3.6798,5e-5 -6.7353,1.23211 -9.1665,3.69618 -2.4313,2.4313 -3.6469,6.34103 -3.6469,11.7292 l 0,30.40722 -8.8708,0 0,-34.00483 c 0,-3.94255 -0.7229,-6.89949 -2.1684,-8.87082 -1.4457,-1.97125 -3.8112,-2.9569 -7.0967,-2.95695 -2.497,5e-5 -4.8133,0.65715 -6.9488,1.9713 -2.1027,1.31424 -3.6305,3.23625 -4.5833,5.76604 -0.9528,2.52986 -1.4292,6.17675 -1.4292,10.94068 l 0,27.15458 -8.8708,0"
       style="font-size:100.93028259px;fill:#999999"
       id="path3029" />
    <path
       d="m 2140.0501,497.6927 c 0,-9.69216 2.6941,-16.87096 8.0823,-21.5364 4.5011,-3.87682 9.9879,-5.81526 16.4603,-5.81531 7.1952,5e-5 13.0762,2.3656 17.6431,7.09666 4.5668,4.69829 6.8502,11.20356 6.8503,19.51581 -1e-4,6.73528 -1.0186,12.04134 -3.0555,15.91821 -2.0042,3.84403 -4.9447,6.83382 -8.8216,8.96939 -3.844,2.13557 -8.0495,3.20335 -12.6163,3.20335 -7.3266,0 -13.2569,-2.34912 -17.7909,-7.04738 -4.5011,-4.69824 -6.7517,-11.46634 -6.7517,-20.30433 m 9.1173,0 c -10e-5,6.70242 1.462,11.72921 4.3861,15.0804 2.924,3.31835 6.6038,4.97753 11.0392,4.97752 4.4026,10e-6 8.0659,-1.67559 10.99,-5.0268 2.924,-3.35119 4.3861,-8.46012 4.3861,-15.32682 0,-6.47238 -1.4785,-11.36776 -4.4354,-14.68614 -2.9241,-3.35116 -6.571,-5.02676 -10.9407,-5.0268 -4.4354,4e-5 -8.1152,1.65922 -11.0392,4.97752 -2.9241,3.31838 -4.3862,8.32875 -4.3861,15.03112"
       style="font-size:100.93028259px;fill:#999999"
       id="path3031" />
    <path
       d="m 2199.5339,523.86163 0,-52.33787 7.9838,0 0,7.44164 c 3.844,-5.74956 9.3964,-8.62436 16.6574,-8.62441 3.154,5e-5 6.0453,0.57501 8.6737,1.72488 2.6612,1.11712 4.6489,2.59559 5.9632,4.43541 1.3141,1.83992 2.234,4.02477 2.7598,6.55456 0.3285,1.64278 0.4927,4.51758 0.4928,8.62441 l 0,32.18138 -8.8708,0 0,-31.8364 c -1e-4,-3.61401 -0.345,-6.30811 -1.035,-8.08231 -0.6899,-1.80698 -1.922,-3.23617 -3.6961,-4.28757 -1.7414,-1.08416 -3.7948,-1.62627 -6.1603,-1.62632 -3.7784,5e-5 -7.0474,1.19925 -9.8072,3.59762 -2.727,2.39845 -4.0905,6.94885 -4.0905,13.65121 l 0,28.58377 -8.8708,0"
       style="font-size:100.93028259px;fill:#999999"
       id="path3033" />
    <path
       d="m 2252.1675,508.23912 8.7722,-1.3799 c 0.4928,3.51549 1.8563,6.20959 4.0905,8.08231 2.2669,1.87273 5.421,2.8091 9.4622,2.80909 4.074,10e-6 7.0966,-0.82137 9.0679,-2.46412 1.9713,-1.67559 2.9569,-3.63045 2.957,-5.8646 -1e-4,-2.00413 -0.8707,-3.58117 -2.612,-4.73111 -1.2157,-0.78849 -4.2383,-1.79057 -9.0679,-3.00622 -6.5053,-1.64272 -11.0229,-3.05548 -13.5527,-4.23828 -2.497,-1.21561 -4.4026,-2.87478 -5.7167,-4.97752 -1.2814,-2.13554 -1.9221,-4.48466 -1.9221,-7.04738 0,-2.33266 0.5257,-4.48465 1.5771,-6.45599 1.0842,-2.0041 2.5462,-3.66327 4.3861,-4.97752 1.3799,-1.01845 3.2526,-1.87268 5.6182,-2.56268 2.3984,-0.72276 4.9611,-1.08416 7.688,-1.08421 4.1069,5e-5 7.7045,0.59144 10.7929,1.77416 3.1212,1.18283 5.421,2.79272 6.8995,4.82967 1.4784,2.0042 2.4969,4.6983 3.0555,8.08231 l -8.6737,1.18278 c -0.3943,-2.69407 -1.5442,-4.79678 -3.4497,-6.30815 -1.8728,-1.51128 -4.534,-2.26694 -7.9838,-2.26698 -4.074,4e-5 -6.9817,0.67357 -8.723,2.02057 -1.7413,1.3471 -2.6119,2.92413 -2.6119,4.73111 0,1.14996 0.3614,2.18489 1.0842,3.10479 0.7228,0.95283 1.8563,1.74134 3.4005,2.36555 0.887,0.32858 3.499,1.08425 7.8359,2.26699 6.2752,1.67563 10.6449,3.05554 13.1091,4.13972 2.4969,1.05138 4.4518,2.59556 5.8646,4.63254 1.4127,2.03703 2.1191,4.56685 2.1191,7.58949 0,2.95695 -0.8707,5.74961 -2.6119,8.378 -1.7085,2.59554 -4.1891,4.61611 -7.4417,6.06173 -3.2527,1.41276 -6.9324,2.11914 -11.0392,2.11914 -6.801,0 -11.9921,-1.41276 -15.5733,-4.23828 -3.5483,-2.82552 -5.8153,-7.01452 -6.8009,-12.56701"
       style="font-size:100.93028259px;fill:#999999"
       id="path3035" />
  </g>
</svg>
